<!DOCTYPE svg PUBLIC "-//W3C//DTD SVG 1.1//EN" "http://www.w3.org/Graphics/SVG/1.1/DTD/svg11.dtd">
<!-- Uploaded to: SVG Repo, www.svgrepo.com, Transformed by: SVG Repo Mixer Tools -->
<svg stroke="#A78BFA" fill="none" stroke-width="4" width="800px" height="800px" viewBox="0 0 56 56" xmlns="http://www.w3.org/2000/svg">

<g id="SVGRepo_bgCarrier" stroke-width="0"/>

<g id="SVGRepo_tracerCarrier" stroke-linecap="round" stroke-linejoin="round"/>

<g id="SVGRepo_iconCarrier">

<path d="M 6.0038 32.9805 C 6.0038 38.9336 9.9882 42.9180 15.9413 42.9180 C 18.5429 42.9180 20.9570 42.0273 22.6444 40.6680 C 21.7070 43.1992 19.9726 45.1211 18.9648 46.2930 C 17.5116 48.0976 18.1913 50.4883 20.7460 50.4883 L 35.2304 50.4883 C 37.7851 50.4883 38.4648 48.0976 37.0116 46.2930 C 36.0038 45.1211 34.2695 43.1992 33.3319 40.6680 C 35.0195 42.0273 37.4570 42.9180 40.0351 42.9180 C 46.0116 42.9180 49.9962 38.9336 49.9962 32.9805 C 49.9962 23.0898 35.9804 18.2383 30.2851 7.2226 C 29.7929 6.2617 29.2538 5.5117 27.9882 5.5117 C 26.7226 5.5117 26.2070 6.2617 25.6913 7.2226 C 19.9960 18.2383 6.0038 23.0898 6.0038 32.9805 Z"/>

</g>

</svg>